<?xml version="1.0" encoding="UTF-8"?>
<svg xmlns="http://www.w3.org/2000/svg" version="1.1" viewBox="0 0 2972.8 394.7">
  <!-- Generator: Adobe Illustrator 29.5.1, SVG Export Plug-In . SVG Version: 2.1.0 Build 141)  -->
  <defs>
    <style>
      .st0 {
        fill: #ee2935;
      }

      .st1 {
        fill: #231f20;
      }

      .st2 {
        fill: none;
        stroke: #939598;
        stroke-miterlimit: 10;
      }

      .st3 {
        fill: #fff;
      }

      .st4 {
        display: none;
      }
    </style>
  </defs>
  <g id="Logo">
    <g>
      <path class="st1" d="M2487,81.3c-3,3-6.5,4.5-10.7,4.5s-7.8-1.5-10.7-4.5c-2.9-3-4.4-6.6-4.4-10.8s1.5-7.7,4.4-10.7c2.9-2.9,6.5-4.4,10.7-4.4s7.8,1.5,10.7,4.4c3,2.9,4.4,6.5,4.4,10.7s-1.5,7.8-4.4,10.8ZM2467.1,61.3c-2.5,2.5-3.8,5.6-3.8,9.2s1.3,6.7,3.8,9.3c2.5,2.6,5.6,3.8,9.2,3.8s6.7-1.3,9.2-3.8c2.5-2.6,3.8-5.7,3.8-9.3s-1.3-6.7-3.8-9.2c-2.5-2.6-5.6-3.8-9.2-3.8s-6.7,1.3-9.2,3.8ZM2476,62.1c2.1,0,3.6.2,4.5.6,1.7.7,2.6,2.1,2.6,4.2s-.5,2.6-1.6,3.3c-.6.4-1.4.6-2.4.8,1.3.2,2.3.8,2.9,1.6.6.9.9,1.7.9,2.6v1.2c0,.4,0,.8,0,1.2,0,.4,0,.7.1.9v.2c.1,0-2.6,0-2.6,0,0,0,0-.1,0-.2s0-.1,0-.2v-.5c0,0,0-1.3,0-1.3,0-1.9-.5-3.2-1.6-3.8-.6-.4-1.7-.5-3.3-.5h-2.3v6.6h-2.9v-16.7h5.8ZM2479.2,64.8c-.7-.4-1.9-.6-3.6-.6h-2.5v6h2.7c1.2,0,2.2-.1,2.8-.4,1.1-.5,1.7-1.3,1.7-2.6s-.4-2-1.1-2.4Z"/>
      <polygon class="st1" points="1975 55.4 1975 239.9 1803.6 55.4 1717.3 55.4 1717.3 340.9 1797.6 340.9 1797.6 158.8 1969.1 340.9 2055.4 340.9 2055.4 55.4 1975 55.4"/>
      <polygon class="st1" points="2354.1 55.4 2354.1 239.9 2182.6 55.4 2096.3 55.4 2096.3 340.9 2176.6 340.9 2176.6 158.8 2348.1 340.9 2434.4 340.9 2434.4 55.4 2354.1 55.4"/>
      <rect class="st1" x="1593.1" y="55.4" width="83.2" height="285.5"/>
      <polygon class="st1" points="1483.1 55.4 1421.8 248.1 1354.9 55.4 1275.2 55.4 1208.3 248.1 1147 55.4 1061.8 55.4 1166.2 340.9 1248.2 340.9 1315.1 142.3 1381.9 340.9 1463.9 340.9 1568.3 55.4 1483.1 55.4"/>
      <polygon class="st1" points="953.8 161.8 782.5 161.8 782.5 55.4 699.3 55.4 699.3 340.9 782.5 340.9 782.5 230.4 953.8 230.4 953.8 340.9 1037 340.9 1037 55.4 953.8 55.4 953.8 161.8"/>
      <path class="st1" d="M344.2,198.1c0,90,73.8,152.1,190.2,152.1s97.4-12,128.9-33.9v-81c-17.4,15.1-61.4,47.2-127.8,47.2s-106.7-31.8-106.7-84.4,45.1-84.4,106.7-84.4,110.4,32.1,127.8,47.2v-81c-31.4-21.9-79.2-33.9-128.9-33.9-116.4,0-190.2,62.1-190.2,152.1Z"/>
      <path class="st1" d="M166.8,159.8c-51-4.1-84-6.5-84-25.7s40.4-25.7,73.8-25.7c99.9,0,149.8,39,149.8,39v-68.3h0s0,0,0,0c-35-22-94.8-33.2-149.8-33.2C66.1,46,0,79.4,0,140.6s77.1,82.4,161.9,89.7c58.7,4.9,81.6,11,81.6,29.4s-24.5,27.7-73.4,27.7c-76.5,0-137.9-33.5-164.8-53.7v72.7c43,28.3,98.5,43.8,163.2,43.8,103.6,0,157.8-40,157.8-98.7s-66.1-84-159.5-91.8Z"/>
    </g>
    <g>
      <circle class="st0" cx="2775.4" cy="197.3" r="197.3"/>
      <path class="st3" d="M2770.4,10.2v174.8c0,0-34-33.9-34-33.9l34-140.9ZM2780.5,10.2v174.8c0,0,34-33.9,34-33.9l-34-140.9ZM2814.4,243.6l-33.9-33.9v174.8c0,0,33.9-140.9,33.9-140.9ZM2770.4,384.5v-174.8c0,0-34,33.9-34,33.9l34,140.9ZM2729.2,236.3l33.9-33.9h-174.8c0,0,140.9,33.9,140.9,33.9ZM2588.3,192.3h174.8c0,0-33.9-34-33.9-34l-140.9,34ZM2821.7,158.3l-33.9,33.9h174.8c0,0-140.9-33.9-140.9-33.9ZM2962.6,202.4h-174.8c0,0,33.9,34,33.9,34l140.9-34Z"/>
    </g>
    <path class="st0" d="M2952.5,55.4v2.7h-5.3v13.9h-2.9v-13.9h-5.2v-2.7h13.5ZM2972.8,72h-2.9l-1.3-13.2-4.4,13.2h-2.9l-4-13.3-1.1,13.3h-2.9l1.6-16.6h4l3.9,12.5,4.1-12.5h3.9l1.9,16.6Z"/>
  </g>
  <g id="Clear_Space" class="st4">
    <g>
      <rect class="st2" x="2972.6" y="-285.4" width="285.5" height="285.5"/>
      <rect class="st2" x="2972.6" y="394.7" width="285.5" height="285.5"/>
      <rect class="st2" x="2972.6" y="0" width="285.5" height="394.7"/>
      <rect class="st2" x="2577" y="-285.4" width="395.6" height="285.5"/>
      <rect class="st2" x="2577" y="394.7" width="395.6" height="285.5"/>
      <rect class="st2" x="2577" y="0" width="395.6" height="394.7"/>
      <rect class="st2" x="2434.3" y="-285.4" width="142.7" height="285.5"/>
      <rect class="st2" x="2434.3" y="394.7" width="142.7" height="285.5"/>
      <rect class="st2" x="2434.3" y="0" width="142.7" height="394.7"/>
      <rect class="st2" x="5.2" y="-285.4" width="2429.1" height="285.5"/>
      <rect class="st2" x="5.2" y="394.7" width="2429.1" height="285.5"/>
      <rect class="st2" x="5.2" y="0" width="2429.1" height="394.7"/>
      <rect class="st2" x="-280.2" y="-285.4" width="285.5" height="285.5"/>
      <rect class="st2" x="2972.6" y="55.4" width="285.5" height="285.5"/>
      <rect class="st2" x="2577" y="55.4" width="395.6" height="285.5"/>
      <rect class="st2" x="2434.3" y="55.4" width="142.7" height="285.5"/>
      <rect class="st2" x="5.2" y="55.4" width="2429.1" height="285.5"/>
      <rect class="st2" x="-280.2" y="55.4" width="285.5" height="285.5"/>
      <rect class="st2" x="-280.2" y="394.7" width="285.5" height="285.5"/>
      <rect class="st2" x="-280.2" y="0" width="285.5" height="394.7"/>
    </g>
  </g>
</svg>