<svg xmlns="http://www.w3.org/2000/svg" xmlns:xlink="http://www.w3.org/1999/xlink" version="1.1" width="2380" height="1400" style="width: 2380px; height: 1400px; background: #111111" viewBox="0 0 2380 1400"><style id="v-3" type="text/css">        .joint-element .scalable * {            vector-effect: non-scaling-stroke;        }    </style><defs joint-selector="defs"><marker id="v-2-527367903" orient="auto" overflow="visible" markerUnits="userSpaceOnUse"><path id="v-77" stroke="#cccccc" fill="#cccccc" transform="rotate(180)" d="M 20 -10 0 0 20 10 Z"></path></marker></defs><g joint-selector="layers"  transform="matrix(1,0,0,1,0,0)"><g  style="pointer-events: none;"></g><g ></g><g  style="-webkit-user-select: none;"><!--z-index:1--><!--z-index:2--><!--z-index:3--><!--z-index:4--><!--z-index:5--><!--z-index:6--><!--z-index:7--><!--z-index:8--><!--z-index:9--><!--z-index:10--><!--z-index:11--><!--z-index:12--><g   id="j_324"  transform="translate(20,1356)"><g id="v-4075"><text  id="v-4076" font-size="24px" xml:space="preserve" y="0.8em" font-weight="normal" text-anchor="start" fill="#cccccc" pointer-events="none" display="block" font-family="Tahoma, Verdana, Helvetica, Arial"><tspan dy="0" >Sunday, May 3, 2026 at 1:41 PM Eastern Daylight Time</tspan></text></g></g><!--z-index:13--><g   id="j_323"  transform="translate(20,1310)"><g id="v-4073"><text  id="v-4074" font-size="36px" xml:space="preserve" y="0.8em" font-weight="normal" text-anchor="start" fill="#cccccc" pointer-events="none" display="block" font-family="Tahoma, Verdana, Helvetica, Arial"><tspan dy="0" >System Context View: Schwinn Workout Application</tspan></text></g></g><!--z-index:14--><g   id="j_325"  transform="translate(200,523)" style=""><g  id="v-4080" style="opacity: 1;"><rect  x="0" y="160" width="400" height="240" rx="70" id="v-4082" stroke-width="2" pointer-events="visiblePainted" fill="#08427b" stroke="#073b6f" stroke-dasharray="" style="fill: rgb(8, 66, 123); stroke: rgb(7, 59, 111);"></rect><circle  cx="200" cy="88.88888888888889" r="88.88888888888889" id="v-4081" stroke-width="2" pointer-events="visiblePainted" fill="#08427b" stroke="#073b6f" stroke-dasharray="" style="fill: rgb(8, 66, 123); stroke: rgb(7, 59, 111);"></circle><line  x1="80" y1="266.6666666666667" x2="80" y2="400" id="v-4088" stroke="#073b6f" stroke-width="1" stroke-dasharray="" style="stroke: rgb(7, 59, 111);"></line><line  x1="320" y1="266.6666666666667" x2="320" y2="400" id="v-4089" stroke="#073b6f" stroke-width="1" stroke-dasharray="" style="stroke: rgb(7, 59, 111);"></line><text  id="v-4083" font-size="33.599999999999994px" xml:space="preserve" y="202.5" font-weight="bold" text-anchor="middle" pointer-events="visible" font-family="Tahoma, Verdana, Helvetica, Arial" fill="#ffffff" dominant-baseline="hanging" transform="matrix(1,0,0,1,200,0)" style="fill: rgb(255, 255, 255);"><tspan dy="0" >User</tspan></text><text  id="v-4084" font-size="16.799999999999997px" xml:space="preserve" y="244.1" text-anchor="middle" font-family="Tahoma, Verdana, Helvetica, Arial" fill="#ffffff" dominant-baseline="hanging" transform="matrix(1,0,0,1,200,0)" style="display: block; fill: rgb(255, 255, 255);"><tspan dy="0" >[Person]</tspan></text><text  id="v-4085" font-size="24px" xml:space="preserve" y="275.9" text-anchor="middle" font-family="Tahoma, Verdana, Helvetica, Arial" fill="#ffffff" dominant-baseline="hanging" transform="matrix(1,0,0,1,200,0)" style="display: block; fill: rgb(255, 255, 255);"><tspan dy="0" >Views workout history, charts,</tspan><tspan dy="1.2em" x="0" >ride metrics, and manages ride</tspan><tspan dy="1.2em" x="0" >data.</tspan></text><g  id="v-4086" font-weight="normal" text-anchor="middle" color="#ffffff" transform="matrix(1,0,0,1,197.5,368)" display="none" style="fill: rgb(255, 255, 255);"><g ></g><g ></g><g ></g><g ></g></g><image  id="v-4087"></image></g></g><!--z-index:15--><g   id="j_326"  transform="translate(940,573)" style=""><g  id="v-4096" style="opacity: 1;"><rect  id="v-4097" rx="20" ry="20" stroke-width="2" pointer-events="visiblePainted" fill="#1168bd" stroke="#0f5eaa" stroke-dasharray="" width="450" height="300" style="fill: rgb(17, 104, 189); stroke: rgb(15, 94, 170);"></rect><text  id="v-4098" font-size="33.599999999999994px" xml:space="preserve" y="52.34" font-weight="bold" text-anchor="middle" pointer-events="visible" font-family="Tahoma, Verdana, Helvetica, Arial" fill="#ffffff" dominant-baseline="hanging" transform="matrix(1,0,0,1,225,0)" style="fill: rgb(255, 255, 255);"><tspan dy="0" >Schwinn Workout</tspan><tspan dy="1.2em" x="0" >Application</tspan></text><text  id="v-4099" font-size="16.799999999999997px" xml:space="preserve" y="134.26" text-anchor="middle" font-family="Tahoma, Verdana, Helvetica, Arial" fill="#ffffff" dominant-baseline="hanging" transform="matrix(1,0,0,1,225,0)" style="display: block; fill: rgb(255, 255, 255);"><tspan dy="0" >[Software System]</tspan></text><text  id="v-4100" font-size="24px" xml:space="preserve" y="166.06" text-anchor="middle" font-family="Tahoma, Verdana, Helvetica, Arial" fill="#ffffff" dominant-baseline="hanging" transform="matrix(1,0,0,1,225,0)" style="display: block; fill: rgb(255, 255, 255);"><tspan dy="0" >Tracks Schwinn workout history,</tspan><tspan dy="1.2em" x="0" >ride statistics, charts, and optional</tspan><tspan dy="1.2em" x="0" >ride exports.</tspan></text><g  id="v-4101" color="#ffffff" transform="matrix(1,0,0,1,210,268)" display="none" style="fill: rgb(255, 255, 255);"><g  transform="translate(5 0)"><svg xmlns="http://www.w3.org/2000/svg" width="20" height="20" fill="currentColor" viewBox="0 0 16 16"><path fill-rule="evenodd" d="M6.5 12a5.5 5.5 0 1 0 0-11 5.5 5.5 0 0 0 0 11zM13 6.5a6.5 6.5 0 1 1-13 0 6.5 6.5 0 0 1 13 0z"></path><path d="M10.344 11.742c.03.04.062.078.098.115l3.85 3.85a1 1 0 0 0 1.415-1.414l-3.85-3.85a1.007 1.007 0 0 0-.115-.1 6.538 6.538 0 0 1-1.398 1.4z"></path><path fill-rule="evenodd" d="M6.5 3a.5.5 0 0 1 .5.5V6h2.5a.5.5 0 0 1 0 1H7v2.5a.5.5 0 0 1-1 0V7H3.5a.5.5 0 0 1 0-1H6V3.5a.5.5 0 0 1 .5-.5z"></path></svg></g><g ></g><g ></g><g ></g></g><image  id="v-4102"></image></g></g><!--z-index:16--><g   id="j_327"  transform="translate(1730,859)" style=""><g  id="v-4106" style="opacity: 1;"><rect  id="v-4107" rx="20" ry="20" stroke-width="2" pointer-events="visiblePainted" fill="#1168bd" stroke="#0f5eaa" stroke-dasharray="" width="450" height="300" style="fill: rgb(17, 104, 189); stroke: rgb(15, 94, 170);"></rect><text  id="v-4108" font-size="33.599999999999994px" xml:space="preserve" y="101.30000000000001" font-weight="bold" text-anchor="middle" pointer-events="visible" font-family="Tahoma, Verdana, Helvetica, Arial" fill="#ffffff" dominant-baseline="hanging" transform="matrix(1,0,0,1,225,0)" style="fill: rgb(255, 255, 255);"><tspan dy="0" >Prometheus</tspan></text><text  id="v-4109" font-size="16.799999999999997px" xml:space="preserve" y="142.9" text-anchor="middle" font-family="Tahoma, Verdana, Helvetica, Arial" fill="#ffffff" dominant-baseline="hanging" transform="matrix(1,0,0,1,225,0)" style="display: block; fill: rgb(255, 255, 255);"><tspan dy="0" >[Software System]</tspan></text><text  id="v-4110" font-size="24px" xml:space="preserve" y="174.7" text-anchor="middle" font-family="Tahoma, Verdana, Helvetica, Arial" fill="#ffffff" dominant-baseline="hanging" transform="matrix(1,0,0,1,225,0)" style="display: block; fill: rgb(255, 255, 255);"><tspan dy="0" >Scrapes application metrics.</tspan></text><g  id="v-4111" color="#ffffff" transform="matrix(1,0,0,1,222.5,268)" display="none" style="fill: rgb(255, 255, 255);"><g ></g><g ></g><g ></g><g ></g></g><image  id="v-4112"></image></g></g><!--z-index:17--><g   id="j_328"  transform="translate(1730,159)" style=""><g  id="v-4116" style="opacity: 1;"><rect  id="v-4117" rx="20" ry="20" stroke-width="2" pointer-events="visiblePainted" fill="#1168bd" stroke="#0f5eaa" stroke-dasharray="" width="450" height="300" style="fill: rgb(17, 104, 189); stroke: rgb(15, 94, 170);"></rect><text  id="v-4118" font-size="33.599999999999994px" xml:space="preserve" y="86.9" font-weight="bold" text-anchor="middle" pointer-events="visible" font-family="Tahoma, Verdana, Helvetica, Arial" fill="#ffffff" dominant-baseline="hanging" transform="matrix(1,0,0,1,225,0)" style="fill: rgb(255, 255, 255);"><tspan dy="0" >Strava API</tspan></text><text  id="v-4119" font-size="16.799999999999997px" xml:space="preserve" y="128.5" text-anchor="middle" font-family="Tahoma, Verdana, Helvetica, Arial" fill="#ffffff" dominant-baseline="hanging" transform="matrix(1,0,0,1,225,0)" style="display: block; fill: rgb(255, 255, 255);"><tspan dy="0" >[Software System]</tspan></text><text  id="v-4120" font-size="24px" xml:space="preserve" y="160.3" text-anchor="middle" font-family="Tahoma, Verdana, Helvetica, Arial" fill="#ffffff" dominant-baseline="hanging" transform="matrix(1,0,0,1,225,0)" style="display: block; fill: rgb(255, 255, 255);"><tspan dy="0" >Optional external ride upload</tspan><tspan dy="1.2em" x="0" >destination.</tspan></text><g  id="v-4121" color="#ffffff" transform="matrix(1,0,0,1,222.5,268)" display="none" style="fill: rgb(255, 255, 255);"><g ></g><g ></g><g ></g><g ></g></g><image  id="v-4122"></image></g></g><!--z-index:18--><g   id="j_329"  transform="translate(1730,509)" style=""><g  id="v-4126" style="opacity: 1;"><rect  id="v-4127" rx="20" ry="20" stroke-width="2" pointer-events="visiblePainted" fill="#1168bd" stroke="#0f5eaa" stroke-dasharray="" width="450" height="300" style="fill: rgb(17, 104, 189); stroke: rgb(15, 94, 170);"></rect><text  id="v-4128" font-size="33.599999999999994px" xml:space="preserve" y="86.9" font-weight="bold" text-anchor="middle" pointer-events="visible" font-family="Tahoma, Verdana, Helvetica, Arial" fill="#ffffff" dominant-baseline="hanging" transform="matrix(1,0,0,1,225,0)" style="fill: rgb(255, 255, 255);"><tspan dy="0" >MapMyRide</tspan></text><text  id="v-4129" font-size="16.799999999999997px" xml:space="preserve" y="128.5" text-anchor="middle" font-family="Tahoma, Verdana, Helvetica, Arial" fill="#ffffff" dominant-baseline="hanging" transform="matrix(1,0,0,1,225,0)" style="display: block; fill: rgb(255, 255, 255);"><tspan dy="0" >[Software System]</tspan></text><text  id="v-4130" font-size="24px" xml:space="preserve" y="160.3" text-anchor="middle" font-family="Tahoma, Verdana, Helvetica, Arial" fill="#ffffff" dominant-baseline="hanging" transform="matrix(1,0,0,1,225,0)" style="display: block; fill: rgb(255, 255, 255);"><tspan dy="0" >Potential future external ride upload</tspan><tspan dy="1.2em" x="0" >destination.</tspan></text><g  id="v-4131" color="#ffffff" transform="matrix(1,0,0,1,222.5,268)" display="none" style="fill: rgb(255, 255, 255);"><g ></g><g ></g><g ></g><g ></g></g><image  id="v-4132"></image></g></g><!--z-index:19--><g   id="j_330"  style="opacity: 1;"><path fill="none" cursor="pointer" stroke="transparent" stroke-linecap="round" joint-selector="wrapper" id="v-4144" stroke-width="10" stroke-linejoin="round" d="M 600 723 L 940 723"></path><path fill="none" pointer-events="none" joint-selector="line" id="v-4143" stroke="#cccccc" stroke-width="2" stroke-linejoin="round" stroke-dasharray="8 8" d="M 600 723 L 940 723" marker-end="url(#v-2-527367903)"></path><g id="v-4133" ><g id="v-4134"  label-idx="0" cursor="move" transform="matrix(1,0,0,1,770,709.5999755859375)" style="cursor: default;"><rect joint-selector="rect" id="v-4138" fill="#111111" rx="3" ry="3" x="-24.90625" y="-16.8125" width="49.8125" height="28.984375" pointer-events="none"  style="display: block;"></rect><text joint-selector="text" id="v-4137" font-size="24px" xml:space="preserve" fill="#cccccc" text-anchor="middle" pointer-events="none" font-family="Tahoma, Verdana, Helvetica, Arial" font-weight="normal"  style="display: block;"><tspan dy="0.3em" >Uses</tspan></text></g><g id="v-4135"  label-idx="1" cursor="move" transform="matrix(1,0,0,1,770,740)" style="cursor: default;"><rect joint-selector="rect" id="v-4140" fill="#111111" rx="3" ry="3" x="-54.5625" y="-11.78125" width="109.125" height="20.296875"  pointer-events="none" style="display: block;"></rect><text joint-selector="text" id="v-4139" font-size="16.799999999999997px" xml:space="preserve" fill="#cccccc" text-anchor="middle" pointer-events="none" font-family="Tahoma, Verdana, Helvetica, Arial" font-weight="normal"  style="display: block;"><tspan dy="0.3em" >[HTTP/HTTPS]</tspan></text></g><g id="v-4136"  label-idx="2" cursor="move" transform="matrix(1,0,0,1,760,748.4000244140625)" style="cursor: default;"><rect joint-selector="rect" id="v-4142" fill="#ffffff" rx="3" ry="3" x="0" y="-1.1368683772161603e-13" width="0" height="0"  display="none"></rect><text joint-selector="text" id="v-4141" fill="#000000" font-size="14" text-anchor="middle" text-vertical-anchor="middle" pointer-events="none"></text></g></g></g><!--z-index:20--><g   id="j_331"  style="opacity: 1;"><path fill="none" cursor="pointer" stroke="transparent" stroke-linecap="round" joint-selector="wrapper" id="v-4159" stroke-width="10" stroke-linejoin="round" d="M 1730 1009 L 1570 1009 C 1563.3333333333333 1009 1557.3333333333333 1007 1552 1003 L 1372.17 873"></path><path fill="none" pointer-events="none" joint-selector="line" id="v-4158" stroke="#cccccc" stroke-width="2" stroke-linejoin="round" stroke-dasharray="8 8" d="M 1730 1009 L 1570 1009 C 1563.3333333333333 1009 1557.3333333333333 1007 1552 1003 L 1372.17 873" marker-end="url(#v-2-527367903)"></path><g id="v-4148" ><g id="v-4149"  label-idx="0" cursor="move" transform="matrix(1,0,0,1,1560.3946533203125,994.0646362304688)" style="cursor: default;"><rect joint-selector="rect" id="v-4153" fill="#111111" rx="3" ry="3" x="-87.859375" y="-16.8125" width="175.71875" height="28.984375" pointer-events="none"  style="display: block;"></rect><text joint-selector="text" id="v-4152" font-size="24px" xml:space="preserve" fill="#cccccc" text-anchor="middle" pointer-events="none" font-family="Tahoma, Verdana, Helvetica, Arial" font-weight="normal"  style="display: block;"><tspan dy="0.3em" >Scrapes /metrics</tspan></text></g><g id="v-4150"  label-idx="1" cursor="move" transform="matrix(1,0,0,1,1560.3946533203125,1024.464599609375)" style="cursor: default;"><rect joint-selector="rect" id="v-4155" fill="#111111" rx="3" ry="3" x="-26.546875" y="-11.78125" width="53.09375" height="20.296875"  pointer-events="none" style="display: block;"></rect><text joint-selector="text" id="v-4154" font-size="16.799999999999997px" xml:space="preserve" fill="#cccccc" text-anchor="middle" pointer-events="none" font-family="Tahoma, Verdana, Helvetica, Arial" font-weight="normal"  style="display: block;"><tspan dy="0.3em" >[HTTP]</tspan></text></g><g id="v-4151"  label-idx="2" cursor="move" transform="matrix(1,0,0,1,1524.74462890625,1015.9259643554688)" style="cursor: default;"><rect joint-selector="rect" id="v-4157" fill="#ffffff" rx="3" ry="3" x="0" y="0" width="0" height="0"  display="none"></rect><text joint-selector="text" id="v-4156" fill="#000000" font-size="14" text-anchor="middle" text-vertical-anchor="middle" pointer-events="none"></text></g></g></g><!--z-index:21--><g   id="j_332"  style="opacity: 1;"><path fill="none" cursor="pointer" stroke="transparent" stroke-linecap="round" joint-selector="wrapper" id="v-4174" stroke-width="10" stroke-linejoin="round" d="M 1308.12 573 L 1553 316 C 1557.6666666666665 311.3333333333333 1563.3333333333333 309 1570 309 L 1730 309"></path><path fill="none" pointer-events="none" joint-selector="line" id="v-4173" stroke="#cccccc" stroke-width="2" stroke-linejoin="round" stroke-dasharray="8 8" d="M 1308.12 573 L 1553 316 C 1557.6666666666665 311.3333333333333 1563.3333333333333 309 1570 309 L 1730 309" marker-end="url(#v-2-527367903)"></path><g id="v-4163" ><g id="v-4164"  label-idx="0" cursor="move" transform="matrix(1,0,0,1,1560.584228515625,297.4190368652344)" style="cursor: default;"><rect joint-selector="rect" id="v-4168" fill="#111111" rx="3" ry="3" x="-71.171875" y="-16.8125" width="142.34375" height="28.984375" pointer-events="none"  style="display: block;"></rect><text joint-selector="text" id="v-4167" font-size="24px" xml:space="preserve" fill="#cccccc" text-anchor="middle" pointer-events="none" font-family="Tahoma, Verdana, Helvetica, Arial" font-weight="normal"  style="display: block;"><tspan dy="0.3em" >Uploads rides</tspan></text></g><g id="v-4165"  label-idx="1" cursor="move" transform="matrix(1,0,0,1,1560.584228515625,327.81903076171875)" style="cursor: default;"><rect joint-selector="rect" id="v-4170" fill="#111111" rx="3" ry="3" x="-47.25" y="-11.78125" width="94.5" height="20.296875"  pointer-events="none" style="display: block;"></rect><text joint-selector="text" id="v-4169" font-size="16.799999999999997px" xml:space="preserve" fill="#cccccc" text-anchor="middle" pointer-events="none" font-family="Tahoma, Verdana, Helvetica, Arial" font-weight="normal"  style="display: block;"><tspan dy="0.3em" >[HTTPS/API]</tspan></text></g><g id="v-4166"  label-idx="2" cursor="move" transform="matrix(1,0,0,1,1482.2637939453125,405.1422424316406)" style="cursor: default;"><rect joint-selector="rect" id="v-4172" fill="#ffffff" rx="3" ry="3" x="0" y="0" width="0" height="0"  display="none"></rect><text joint-selector="text" id="v-4171" fill="#000000" font-size="14" text-anchor="middle" text-vertical-anchor="middle" pointer-events="none"></text></g></g></g><!--z-index:22--><g   id="j_333"  style="opacity: 1;"><path fill="none" cursor="pointer" stroke="transparent" stroke-linecap="round" joint-selector="wrapper" id="v-4189" stroke-width="10" stroke-linejoin="round" d="M 1390 686.54 L 1550 661 C 1556.6666666666665 659.6666666666666 1563.3333333333333 659 1570 659 L 1730 659"></path><path fill="none" pointer-events="none" joint-selector="line" id="v-4188" stroke="#cccccc" stroke-width="2" stroke-linejoin="round" stroke-dasharray="8 8" d="M 1390 686.54 L 1550 661 C 1556.6666666666665 659.6666666666666 1563.3333333333333 659 1570 659 L 1730 659" marker-end="url(#v-2-527367903)"></path><g id="v-4178" ><g id="v-4179"  label-idx="0" cursor="move" transform="matrix(1,0,0,1,1560.0390625,646.0961303710938)" style="cursor: default;"><rect joint-selector="rect" id="v-4183" fill="#111111" rx="3" ry="3" x="-81.5625" y="-31.21875" width="163.125" height="57.78125" pointer-events="none"  style="display: block;"></rect><text joint-selector="text" id="v-4182" font-size="24px" xml:space="preserve" fill="#cccccc" text-anchor="middle" pointer-events="none" font-family="Tahoma, Verdana, Helvetica, Arial" font-weight="normal"  style="display: block;"><tspan dy="-0.3em" >Potential future</tspan><tspan dy="1.2em" x="0" >integration</tspan></text></g><g id="v-4180"  label-idx="1" cursor="move" transform="matrix(1,0,0,1,1560.0390625,690.8961181640625)" style="cursor: default;"><rect joint-selector="rect" id="v-4185" fill="#111111" rx="3" ry="3" x="-47.25" y="-11.78125" width="94.5" height="20.296875"  pointer-events="none" style="display: block;"></rect><text joint-selector="text" id="v-4184" font-size="16.799999999999997px" xml:space="preserve" fill="#cccccc" text-anchor="middle" pointer-events="none" font-family="Tahoma, Verdana, Helvetica, Arial" font-weight="normal"  style="display: block;"><tspan dy="0.3em" >[HTTPS/API]</tspan></text></g><g id="v-4181"  label-idx="2" cursor="move" transform="matrix(1,0,0,1,1548.9453125,699.4110107421875)" style="cursor: default;"><rect joint-selector="rect" id="v-4187" fill="#ffffff" rx="3" ry="3" x="-2.2737367544323206e-13" y="0" width="0" height="0"  display="none"></rect><text joint-selector="text" id="v-4186" fill="#000000" font-size="14" text-anchor="middle" text-vertical-anchor="middle" pointer-events="none"></text></g></g></g><!--z-index:23--><g   id="j_334"  style="opacity: 1;"><path fill="none" cursor="pointer" stroke="transparent" stroke-linecap="round" joint-selector="wrapper" id="v-4207" stroke-width="10" stroke-linejoin="round" d="M 1390 822.75 L 1551 894 C 1557 896.7466666666667 1563.3333333333333 899.0799999999999 1570 901 L 1730 945.84"></path><path fill="none" pointer-events="none" joint-selector="line" id="v-4206" stroke="#cccccc" stroke-width="2" stroke-linejoin="round" stroke-dasharray="8 8" d="M 1390 822.75 L 1551 894 C 1557 896.7466666666667 1563.3333333333333 899.0799999999999 1570 901 L 1730 945.84" marker-end="url(#v-2-527367903)"></path><g id="v-4196" ><g id="v-4197"  label-idx="0" cursor="move" transform="matrix(1,0,0,1,1560.1015625,874.2752075195312)" style="cursor: default;"><rect joint-selector="rect" id="v-4201" fill="#111111" rx="3" ry="3" x="-99.25" y="-16.8125" width="198.5" height="28.984375" pointer-events="none"  style="display: block;"></rect><text joint-selector="text" id="v-4200" font-size="24px" xml:space="preserve" fill="#cccccc" text-anchor="middle" pointer-events="none" font-family="Tahoma, Verdana, Helvetica, Arial" font-weight="normal"  style="display: block;"><tspan dy="0.3em" >Exposes metrics to</tspan></text></g><g id="v-4198"  label-idx="1" cursor="move" transform="matrix(1,0,0,1,1560.1015625,914.7552490234375)" style="cursor: default;"><rect joint-selector="rect" id="v-4203" fill="#111111" rx="3" ry="3" x="-75.84375" y="-21.859375" width="151.6875" height="40.453125"  pointer-events="none" style="display: block;"></rect><text joint-selector="text" id="v-4202" font-size="16.799999999999997px" xml:space="preserve" fill="#cccccc" text-anchor="middle" pointer-events="none" font-family="Tahoma, Verdana, Helvetica, Arial" font-weight="normal"  style="display: block;"><tspan dy="-0.3em" >[HTTP / Prometheus</tspan><tspan dy="1.2em" x="0" >exposition format]</tspan></text></g><g id="v-4199"  label-idx="2" cursor="move" transform="matrix(1,0,0,1,1545.7432861328125,931.5368041992188)" style="cursor: default;"><rect joint-selector="rect" id="v-4205" fill="#ffffff" rx="3" ry="3" x="0" y="0" width="0" height="0"  display="none"></rect><text joint-selector="text" id="v-4204" fill="#000000" font-size="14" text-anchor="middle" text-vertical-anchor="middle" pointer-events="none"></text></g></g></g><!--z-index:24--><!--z-index:25--><!--z-index:26--><!--z-index:27--><!--z-index:28--><!--z-index:29--><!--z-index:30--><!--z-index:31--><!--z-index:32--><!--z-index:33--><!--z-index:34--><!--z-index:35--><!--z-index:36--><!--z-index:37--><!--z-index:38--><!--z-index:39--><!--z-index:40--><!--z-index:41--><!--z-index:42--><!--z-index:43--><!--z-index:44--><!--z-index:45--><!--z-index:46--><!--z-index:47--><!--z-index:48--><!--z-index:49--><!--z-index:50--><!--z-index:51--><!--z-index:52--><!--z-index:53--><!--z-index:54--><!--z-index:55--><!--z-index:56--><!--z-index:57--><!--z-index:58--><!--z-index:59--><!--z-index:60--><!--z-index:61--><!--z-index:62--><!--z-index:63--><!--z-index:64--><!--z-index:65--><!--z-index:66--><!--z-index:67--><!--z-index:68--><!--z-index:69--><!--z-index:70--></g><g  style="-webkit-user-select: none;"></g><g ></g><g  display="none"></g></g></svg>