<svg xmlns="http://www.w3.org/2000/svg" xmlns:xlink="http://www.w3.org/1999/xlink" version="1.1" width="3270" height="2528" style="width: 3270px; height: 2528px; background: #111111" viewBox="0 0 3270 2528"><style id="v-3" type="text/css">        .joint-element .scalable * {            vector-effect: non-scaling-stroke;        }    </style><defs joint-selector="defs"><marker id="v-2-527367903" orient="auto" overflow="visible" markerUnits="userSpaceOnUse"><path id="v-77" stroke="#cccccc" fill="#cccccc" transform="rotate(180)" d="M 20 -10 0 0 20 10 Z"></path></marker></defs><g joint-selector="layers"  transform="matrix(1,0,0,1,0,0)"><g  style="pointer-events: none;"></g><g ></g><g  style="-webkit-user-select: none;"><!--z-index:1--><!--z-index:2--><!--z-index:3--><!--z-index:4--><!--z-index:5--><!--z-index:6--><!--z-index:7--><!--z-index:8--><!--z-index:9--><!--z-index:10--><!--z-index:11--><!--z-index:12--><!--z-index:13--><!--z-index:14--><!--z-index:15--><!--z-index:16--><!--z-index:17--><!--z-index:18--><!--z-index:19--><g   id="j_270"  transform="translate(20,2484)"><g id="v-3390"><text  id="v-3391" font-size="24px" xml:space="preserve" y="0.8em" font-weight="normal" text-anchor="start" fill="#cccccc" pointer-events="none" display="block" font-family="Tahoma, Verdana, Helvetica, Arial"><tspan dy="0" >Sunday, May 3, 2026 at 1:41 PM Eastern Daylight Time</tspan></text></g></g><!--z-index:20--><g   id="j_269"  transform="translate(20,2438)"><g id="v-3388"><text  id="v-3389" font-size="36px" xml:space="preserve" y="0.8em" font-weight="normal" text-anchor="start" fill="#cccccc" pointer-events="none" display="block" font-family="Tahoma, Verdana, Helvetica, Arial"><tspan dy="0" >Container View: Schwinn Workout Application</tspan></text></g></g><!--z-index:21--><g   id="j_271"  transform="translate(199,676)" style=""><g  id="v-3395" style="opacity: 1;"><rect  x="0" y="160" width="400" height="240" rx="70" id="v-3397" stroke-width="2" pointer-events="visiblePainted" fill="#08427b" stroke="#073b6f" stroke-dasharray="" style="fill: rgb(8, 66, 123); stroke: rgb(7, 59, 111);"></rect><circle  cx="200" cy="88.88888888888889" r="88.88888888888889" id="v-3396" stroke-width="2" pointer-events="visiblePainted" fill="#08427b" stroke="#073b6f" stroke-dasharray="" style="fill: rgb(8, 66, 123); stroke: rgb(7, 59, 111);"></circle><line  x1="80" y1="266.6666666666667" x2="80" y2="400" id="v-3403" stroke="#073b6f" stroke-width="1" stroke-dasharray="" style="stroke: rgb(7, 59, 111);"></line><line  x1="320" y1="266.6666666666667" x2="320" y2="400" id="v-3404" stroke="#073b6f" stroke-width="1" stroke-dasharray="" style="stroke: rgb(7, 59, 111);"></line><text  id="v-3398" font-size="33.599999999999994px" xml:space="preserve" y="202.5" font-weight="bold" text-anchor="middle" pointer-events="visible" font-family="Tahoma, Verdana, Helvetica, Arial" fill="#ffffff" dominant-baseline="hanging" transform="matrix(1,0,0,1,200,0)" style="fill: rgb(255, 255, 255);"><tspan dy="0" >User</tspan></text><text  id="v-3399" font-size="16.799999999999997px" xml:space="preserve" y="244.1" text-anchor="middle" font-family="Tahoma, Verdana, Helvetica, Arial" fill="#ffffff" dominant-baseline="hanging" transform="matrix(1,0,0,1,200,0)" style="display: block; fill: rgb(255, 255, 255);"><tspan dy="0" >[Person]</tspan></text><text  id="v-3400" font-size="24px" xml:space="preserve" y="275.9" text-anchor="middle" font-family="Tahoma, Verdana, Helvetica, Arial" fill="#ffffff" dominant-baseline="hanging" transform="matrix(1,0,0,1,200,0)" style="display: block; fill: rgb(255, 255, 255);"><tspan dy="0" >Views workout history, charts,</tspan><tspan dy="1.2em" x="0" >ride metrics, and manages ride</tspan><tspan dy="1.2em" x="0" >data.</tspan></text><g  id="v-3401" font-weight="normal" text-anchor="middle" color="#ffffff" transform="matrix(1,0,0,1,197.5,368)" display="none" style="fill: rgb(255, 255, 255);"><g ></g><g ></g><g ></g><g ></g></g><image  id="v-3402"></image></g></g><!--z-index:22--><g   id="j_273"  transform="translate(939,160)" style="; opacity: 1;"><g id="v-3418"><rect  id="v-3419" width="2130" height="995" rx="20" ry="20" stroke-width="2" pointer-events="none" stroke="#0f5eaa" fill="#111111" opacity="1" stroke-dasharray=""></rect><text  id="v-3420" font-size="33.599999999999994px" xml:space="preserve" y="956" font-weight="bold" text-anchor="start" pointer-events="visible" font-family="Tahoma, Verdana, Helvetica, Arial" fill="#1168bd" transform="matrix(1,0,0,1,15,0)"><tspan dy="0" >Schwinn Workout Application</tspan></text><text  id="v-3421" font-size="16.799999999999997px" xml:space="preserve" y="980" font-weight="normal" text-anchor="start" pointer-events="visible" font-family="Tahoma, Verdana, Helvetica, Arial" fill="#1168bd" transform="matrix(1,0,0,1,15,0)"><tspan dy="0" >[Software System]</tspan></text><image  id="v-3422" pointer-events="visible"></image></g></g><!--z-index:23--><g   id="j_272"  transform="translate(989,726)" style=""><g  id="v-3411" style="opacity: 1;"><rect  id="v-3412" rx="20" ry="20" stroke-width="2" pointer-events="visiblePainted" fill="#438dd5" stroke="#3c7fc0" stroke-dasharray="" width="450" height="300" style="fill: rgb(67, 141, 213); stroke: rgb(60, 127, 192);"></rect><text  id="v-3413" font-size="33.599999999999994px" xml:space="preserve" y="86.9" font-weight="bold" text-anchor="middle" pointer-events="visible" font-family="Tahoma, Verdana, Helvetica, Arial" fill="#ffffff" dominant-baseline="hanging" transform="matrix(1,0,0,1,225,0)" style="fill: rgb(255, 255, 255);"><tspan dy="0" >Web UI</tspan></text><text  id="v-3414" font-size="16.799999999999997px" xml:space="preserve" y="128.5" text-anchor="middle" font-family="Tahoma, Verdana, Helvetica, Arial" fill="#ffffff" dominant-baseline="hanging" transform="matrix(1,0,0,1,225,0)" style="display: block; fill: rgb(255, 255, 255);"><tspan dy="0" >[Container: HTML/CSS/JavaScript]</tspan></text><text  id="v-3415" font-size="24px" xml:space="preserve" y="160.3" text-anchor="middle" font-family="Tahoma, Verdana, Helvetica, Arial" fill="#ffffff" dominant-baseline="hanging" transform="matrix(1,0,0,1,225,0)" style="display: block; fill: rgb(255, 255, 255);"><tspan dy="0" >Browser-based interface for viewing</tspan><tspan dy="1.2em" x="0" >workouts, charts, and statistics.</tspan></text><g  id="v-3416" color="#ffffff" transform="matrix(1,0,0,1,222.5,268)" display="none" style="fill: rgb(255, 255, 255);"><g ></g><g ></g><g ></g><g ></g></g><image  id="v-3417"></image></g></g><!--z-index:24--><g   id="j_274"  transform="translate(1779,726)" style=""><g  id="v-3429" style="opacity: 1;"><rect  id="v-3430" rx="20" ry="20" stroke-width="2" pointer-events="visiblePainted" fill="#438dd5" stroke="#3c7fc0" stroke-dasharray="" width="450" height="300" style="fill: rgb(67, 141, 213); stroke: rgb(60, 127, 192);"></rect><text  id="v-3431" font-size="33.599999999999994px" xml:space="preserve" y="58.10000000000001" font-weight="bold" text-anchor="middle" pointer-events="visible" font-family="Tahoma, Verdana, Helvetica, Arial" fill="#ffffff" dominant-baseline="hanging" transform="matrix(1,0,0,1,225,0)" style="fill: rgb(255, 255, 255);"><tspan dy="0" >Python Web Application</tspan></text><text  id="v-3432" font-size="16.799999999999997px" xml:space="preserve" y="99.7" text-anchor="middle" font-family="Tahoma, Verdana, Helvetica, Arial" fill="#ffffff" dominant-baseline="hanging" transform="matrix(1,0,0,1,225,0)" style="display: block; fill: rgb(255, 255, 255);"><tspan dy="0" >[Container: FastAPI / Python]</tspan></text><text  id="v-3433" font-size="24px" xml:space="preserve" y="131.5" text-anchor="middle" font-family="Tahoma, Verdana, Helvetica, Arial" fill="#ffffff" dominant-baseline="hanging" transform="matrix(1,0,0,1,225,0)" style="display: block; fill: rgb(255, 255, 255);"><tspan dy="0" >Serves pages and APIs, parses</tspan><tspan dy="1.2em" x="0" >workout data, calculates metrics,</tspan><tspan dy="1.2em" x="0" >generates charts, and exposes</tspan><tspan dy="1.2em" x="0" >metrics.</tspan></text><g  id="v-3434" color="#ffffff" transform="matrix(1,0,0,1,210,268)" display="none" style="fill: rgb(255, 255, 255);"><g  transform="translate(5 0)"><svg xmlns="http://www.w3.org/2000/svg" width="20" height="20" fill="currentColor" viewBox="0 0 16 16"><path fill-rule="evenodd" d="M6.5 12a5.5 5.5 0 1 0 0-11 5.5 5.5 0 0 0 0 11zM13 6.5a6.5 6.5 0 1 1-13 0 6.5 6.5 0 0 1 13 0z"></path><path d="M10.344 11.742c.03.04.062.078.098.115l3.85 3.85a1 1 0 0 0 1.415-1.414l-3.85-3.85a1.007 1.007 0 0 0-.115-.1 6.538 6.538 0 0 1-1.398 1.4z"></path><path fill-rule="evenodd" d="M6.5 3a.5.5 0 0 1 .5.5V6h2.5a.5.5 0 0 1 0 1H7v2.5a.5.5 0 0 1-1 0V7H3.5a.5.5 0 0 1 0-1H6V3.5a.5.5 0 0 1 .5-.5z"></path></svg></g><g ></g><g ></g><g ></g></g><image  id="v-3435"></image></g></g><!--z-index:25--><g   id="j_275"  transform="translate(2569,210)" style=""><g  id="v-3442" style="opacity: 1;"><rect  id="v-3443" rx="20" ry="20" stroke-width="2" pointer-events="visiblePainted" fill="#438dd5" stroke="#3c7fc0" stroke-dasharray="" width="450" height="300" style="fill: rgb(67, 141, 213); stroke: rgb(60, 127, 192);"></rect><text  id="v-3444" font-size="33.599999999999994px" xml:space="preserve" y="86.9" font-weight="bold" text-anchor="middle" pointer-events="visible" font-family="Tahoma, Verdana, Helvetica, Arial" fill="#ffffff" dominant-baseline="hanging" transform="matrix(1,0,0,1,225,0)" style="fill: rgb(255, 255, 255);"><tspan dy="0" >Workout Data Store</tspan></text><text  id="v-3445" font-size="16.799999999999997px" xml:space="preserve" y="128.5" text-anchor="middle" font-family="Tahoma, Verdana, Helvetica, Arial" fill="#ffffff" dominant-baseline="hanging" transform="matrix(1,0,0,1,225,0)" style="display: block; fill: rgb(255, 255, 255);"><tspan dy="0" >[Container: CSV / SQLite]</tspan></text><text  id="v-3446" font-size="24px" xml:space="preserve" y="160.3" text-anchor="middle" font-family="Tahoma, Verdana, Helvetica, Arial" fill="#ffffff" dominant-baseline="hanging" transform="matrix(1,0,0,1,225,0)" style="display: block; fill: rgb(255, 255, 255);"><tspan dy="0" >Stores imported workout history and</tspan><tspan dy="1.2em" x="0" >calculated ride metadata.</tspan></text><g  id="v-3447" color="#ffffff" transform="matrix(1,0,0,1,222.5,268)" display="none" style="fill: rgb(255, 255, 255);"><g ></g><g ></g><g ></g><g ></g></g><image  id="v-3448"></image></g></g><!--z-index:26--><g   id="j_276"  transform="translate(2569,560)" style=""><g  id="v-3455" style="opacity: 1;"><rect  id="v-3456" rx="20" ry="20" stroke-width="2" pointer-events="visiblePainted" fill="#438dd5" stroke="#3c7fc0" stroke-dasharray="" width="450" height="300" style="fill: rgb(67, 141, 213); stroke: rgb(60, 127, 192);"></rect><text  id="v-3457" font-size="33.599999999999994px" xml:space="preserve" y="86.9" font-weight="bold" text-anchor="middle" pointer-events="visible" font-family="Tahoma, Verdana, Helvetica, Arial" fill="#ffffff" dominant-baseline="hanging" transform="matrix(1,0,0,1,225,0)" style="fill: rgb(255, 255, 255);"><tspan dy="0" >Application Logs</tspan></text><text  id="v-3458" font-size="16.799999999999997px" xml:space="preserve" y="128.5" text-anchor="middle" font-family="Tahoma, Verdana, Helvetica, Arial" fill="#ffffff" dominant-baseline="hanging" transform="matrix(1,0,0,1,225,0)" style="display: block; fill: rgb(255, 255, 255);"><tspan dy="0" >[Container: Log files]</tspan></text><text  id="v-3459" font-size="24px" xml:space="preserve" y="160.3" text-anchor="middle" font-family="Tahoma, Verdana, Helvetica, Arial" fill="#ffffff" dominant-baseline="hanging" transform="matrix(1,0,0,1,225,0)" style="display: block; fill: rgb(255, 255, 255);"><tspan dy="0" >Stores rotating application logs for</tspan><tspan dy="1.2em" x="0" >troubleshooting and auditability.</tspan></text><g  id="v-3460" color="#ffffff" transform="matrix(1,0,0,1,222.5,268)" display="none" style="fill: rgb(255, 255, 255);"><g ></g><g ></g><g ></g><g ></g></g><image  id="v-3461"></image></g></g><!--z-index:27--><g   id="j_277"  transform="translate(2569,1287)" style=""><g  id="v-3465" style="opacity: 1;"><rect  id="v-3466" rx="20" ry="20" stroke-width="2" pointer-events="visiblePainted" fill="#1168bd" stroke="#0f5eaa" stroke-dasharray="" width="450" height="300" style="fill: rgb(17, 104, 189); stroke: rgb(15, 94, 170);"></rect><text  id="v-3467" font-size="33.599999999999994px" xml:space="preserve" y="101.30000000000001" font-weight="bold" text-anchor="middle" pointer-events="visible" font-family="Tahoma, Verdana, Helvetica, Arial" fill="#ffffff" dominant-baseline="hanging" transform="matrix(1,0,0,1,225,0)" style="fill: rgb(255, 255, 255);"><tspan dy="0" >Prometheus</tspan></text><text  id="v-3468" font-size="16.799999999999997px" xml:space="preserve" y="142.9" text-anchor="middle" font-family="Tahoma, Verdana, Helvetica, Arial" fill="#ffffff" dominant-baseline="hanging" transform="matrix(1,0,0,1,225,0)" style="display: block; fill: rgb(255, 255, 255);"><tspan dy="0" >[Software System]</tspan></text><text  id="v-3469" font-size="24px" xml:space="preserve" y="174.7" text-anchor="middle" font-family="Tahoma, Verdana, Helvetica, Arial" fill="#ffffff" dominant-baseline="hanging" transform="matrix(1,0,0,1,225,0)" style="display: block; fill: rgb(255, 255, 255);"><tspan dy="0" >Scrapes application metrics.</tspan></text><g  id="v-3470" color="#ffffff" transform="matrix(1,0,0,1,222.5,268)" display="none" style="fill: rgb(255, 255, 255);"><g ></g><g ></g><g ></g><g ></g></g><image  id="v-3471"></image></g></g><!--z-index:28--><g   id="j_278"  transform="translate(2569,1637)" style=""><g  id="v-3475" style="opacity: 1;"><rect  id="v-3476" rx="20" ry="20" stroke-width="2" pointer-events="visiblePainted" fill="#1168bd" stroke="#0f5eaa" stroke-dasharray="" width="450" height="300" style="fill: rgb(17, 104, 189); stroke: rgb(15, 94, 170);"></rect><text  id="v-3477" font-size="33.599999999999994px" xml:space="preserve" y="86.9" font-weight="bold" text-anchor="middle" pointer-events="visible" font-family="Tahoma, Verdana, Helvetica, Arial" fill="#ffffff" dominant-baseline="hanging" transform="matrix(1,0,0,1,225,0)" style="fill: rgb(255, 255, 255);"><tspan dy="0" >Strava API</tspan></text><text  id="v-3478" font-size="16.799999999999997px" xml:space="preserve" y="128.5" text-anchor="middle" font-family="Tahoma, Verdana, Helvetica, Arial" fill="#ffffff" dominant-baseline="hanging" transform="matrix(1,0,0,1,225,0)" style="display: block; fill: rgb(255, 255, 255);"><tspan dy="0" >[Software System]</tspan></text><text  id="v-3479" font-size="24px" xml:space="preserve" y="160.3" text-anchor="middle" font-family="Tahoma, Verdana, Helvetica, Arial" fill="#ffffff" dominant-baseline="hanging" transform="matrix(1,0,0,1,225,0)" style="display: block; fill: rgb(255, 255, 255);"><tspan dy="0" >Optional external ride upload</tspan><tspan dy="1.2em" x="0" >destination.</tspan></text><g  id="v-3480" color="#ffffff" transform="matrix(1,0,0,1,222.5,268)" display="none" style="fill: rgb(255, 255, 255);"><g ></g><g ></g><g ></g><g ></g></g><image  id="v-3481"></image></g></g><!--z-index:29--><g   id="j_279"  transform="translate(2569,1987)" style=""><g  id="v-3485" style="opacity: 1;"><rect  id="v-3486" rx="20" ry="20" stroke-width="2" pointer-events="visiblePainted" fill="#1168bd" stroke="#0f5eaa" stroke-dasharray="" width="450" height="300" style="fill: rgb(17, 104, 189); stroke: rgb(15, 94, 170);"></rect><text  id="v-3487" font-size="33.599999999999994px" xml:space="preserve" y="86.9" font-weight="bold" text-anchor="middle" pointer-events="visible" font-family="Tahoma, Verdana, Helvetica, Arial" fill="#ffffff" dominant-baseline="hanging" transform="matrix(1,0,0,1,225,0)" style="fill: rgb(255, 255, 255);"><tspan dy="0" >MapMyRide</tspan></text><text  id="v-3488" font-size="16.799999999999997px" xml:space="preserve" y="128.5" text-anchor="middle" font-family="Tahoma, Verdana, Helvetica, Arial" fill="#ffffff" dominant-baseline="hanging" transform="matrix(1,0,0,1,225,0)" style="display: block; fill: rgb(255, 255, 255);"><tspan dy="0" >[Software System]</tspan></text><text  id="v-3489" font-size="24px" xml:space="preserve" y="160.3" text-anchor="middle" font-family="Tahoma, Verdana, Helvetica, Arial" fill="#ffffff" dominant-baseline="hanging" transform="matrix(1,0,0,1,225,0)" style="display: block; fill: rgb(255, 255, 255);"><tspan dy="0" >Potential future external ride upload</tspan><tspan dy="1.2em" x="0" >destination.</tspan></text><g  id="v-3490" color="#ffffff" transform="matrix(1,0,0,1,222.5,268)" display="none" style="fill: rgb(255, 255, 255);"><g ></g><g ></g><g ></g><g ></g></g><image  id="v-3491"></image></g></g><!--z-index:30--><g   id="j_280"  style="opacity: 1;"><path fill="none" cursor="pointer" stroke="transparent" stroke-linecap="round" joint-selector="wrapper" id="v-3503" stroke-width="10" stroke-linejoin="round" d="M 599 876 L 989 876"></path><path fill="none" pointer-events="none" joint-selector="line" id="v-3502" stroke="#cccccc" stroke-width="2" stroke-linejoin="round" stroke-dasharray="8 8" d="M 599 876 L 989 876" marker-end="url(#v-2-527367903)"></path><g id="v-3492" ><g id="v-3493"  label-idx="0" cursor="move" transform="matrix(1,0,0,1,769,862.5999755859375)" style="cursor: default;"><rect joint-selector="rect" id="v-3497" fill="#111111" rx="3" ry="3" x="-24.90625" y="-16.8125" width="49.8125" height="28.984375" pointer-events="none"  style="display: block;"></rect><text joint-selector="text" id="v-3496" font-size="24px" xml:space="preserve" fill="#cccccc" text-anchor="middle" pointer-events="none" font-family="Tahoma, Verdana, Helvetica, Arial" font-weight="normal"  style="display: block;"><tspan dy="0.3em" >Uses</tspan></text></g><g id="v-3494"  label-idx="1" cursor="move" transform="matrix(1,0,0,1,769,893)" style="cursor: default;"><rect joint-selector="rect" id="v-3499" fill="#111111" rx="3" ry="3" x="-54.5625" y="-11.78125" width="109.125" height="20.296875"  pointer-events="none" style="display: block;"></rect><text joint-selector="text" id="v-3498" font-size="16.799999999999997px" xml:space="preserve" fill="#cccccc" text-anchor="middle" pointer-events="none" font-family="Tahoma, Verdana, Helvetica, Arial" font-weight="normal"  style="display: block;"><tspan dy="0.3em" >[HTTP/HTTPS]</tspan></text></g><g id="v-3495"  label-idx="2" cursor="move" transform="matrix(1,0,0,1,784,901.4000244140625)" style="cursor: default;"><rect joint-selector="rect" id="v-3501" fill="#ffffff" rx="3" ry="3" x="0" y="0" width="0" height="0"  display="none"></rect><text joint-selector="text" id="v-3500" fill="#000000" font-size="14" text-anchor="middle" text-vertical-anchor="middle" pointer-events="none"></text></g></g></g><!--z-index:31--><g   id="j_281"  style="opacity: 1;"><path fill="none" cursor="pointer" stroke="transparent" stroke-linecap="round" joint-selector="wrapper" id="v-3515" stroke-width="10" stroke-linejoin="round" d="M 1439 876 L 1779 876"></path><path fill="none" pointer-events="none" joint-selector="line" id="v-3514" stroke="#cccccc" stroke-width="2" stroke-linejoin="round" stroke-dasharray="8 8" d="M 1439 876 L 1779 876" marker-end="url(#v-2-527367903)"></path><g id="v-3504" ><g id="v-3505"  label-idx="0" cursor="move" transform="matrix(1,0,0,1,1609,862.5999755859375)" style="cursor: default;"><rect joint-selector="rect" id="v-3509" fill="#111111" rx="3" ry="3" x="-24.359375" y="-16.8125" width="48.71875" height="28.984375" pointer-events="none"  style="display: block;"></rect><text joint-selector="text" id="v-3508" font-size="24px" xml:space="preserve" fill="#cccccc" text-anchor="middle" pointer-events="none" font-family="Tahoma, Verdana, Helvetica, Arial" font-weight="normal"  style="display: block;"><tspan dy="0.3em" >Calls</tspan></text></g><g id="v-3506"  label-idx="1" cursor="move" transform="matrix(1,0,0,1,1609,893)" style="cursor: default;"><rect joint-selector="rect" id="v-3511" fill="#111111" rx="3" ry="3" x="-49.5" y="-11.78125" width="99" height="20.296875"  pointer-events="none" style="display: block;"></rect><text joint-selector="text" id="v-3510" font-size="16.799999999999997px" xml:space="preserve" fill="#cccccc" text-anchor="middle" pointer-events="none" font-family="Tahoma, Verdana, Helvetica, Arial" font-weight="normal"  style="display: block;"><tspan dy="0.3em" >[HTTP/JSON]</tspan></text></g><g id="v-3507"  label-idx="2" cursor="move" transform="matrix(1,0,0,1,1599,901.4000244140625)" style="cursor: default;"><rect joint-selector="rect" id="v-3513" fill="#ffffff" rx="3" ry="3" x="-4.547473508864641e-13" y="0" width="0" height="0"  display="none"></rect><text joint-selector="text" id="v-3512" fill="#000000" font-size="14" text-anchor="middle" text-vertical-anchor="middle" pointer-events="none"></text></g></g></g><!--z-index:32--><g   id="j_282"  style="opacity: 1;"><path fill="none" cursor="pointer" stroke="transparent" stroke-linecap="round" joint-selector="wrapper" id="v-3533" stroke-width="10" stroke-linejoin="round" d="M 2118.83 726 L 2393 368 C 2397 362.66666666666663 2402.333333333333 360 2409 360 L 2569 360"></path><path fill="none" pointer-events="none" joint-selector="line" id="v-3532" stroke="#cccccc" stroke-width="2" stroke-linejoin="round" stroke-dasharray="8 8" d="M 2118.83 726 L 2393 368 C 2397 362.66666666666663 2402.333333333333 360 2409 360 L 2569 360" marker-end="url(#v-2-527367903)"></path><g id="v-3522" ><g id="v-3523"  label-idx="0" cursor="move" transform="matrix(1,0,0,1,2399.781982421875,348.71087646484375)" style="cursor: default;"><rect joint-selector="rect" id="v-3527" fill="#111111" rx="3" ry="3" x="-90.84375" y="-31.21875" width="181.6875" height="57.78125" pointer-events="none"  style="display: block;"></rect><text joint-selector="text" id="v-3526" font-size="24px" xml:space="preserve" fill="#cccccc" text-anchor="middle" pointer-events="none" font-family="Tahoma, Verdana, Helvetica, Arial" font-weight="normal"  style="display: block;"><tspan dy="-0.3em" >Reads and writes</tspan><tspan dy="1.2em" x="0" >workout history</tspan></text></g><g id="v-3524"  label-idx="1" cursor="move" transform="matrix(1,0,0,1,2399.781982421875,393.5108642578125)" style="cursor: default;"><rect joint-selector="rect" id="v-3529" fill="#111111" rx="3" ry="3" x="-57.25" y="-11.78125" width="114.5" height="20.296875"  pointer-events="none" style="display: block;"></rect><text joint-selector="text" id="v-3528" font-size="16.799999999999997px" xml:space="preserve" fill="#cccccc" text-anchor="middle" pointer-events="none" font-family="Tahoma, Verdana, Helvetica, Arial" font-weight="normal"  style="display: block;"><tspan dy="0.3em" >[File I/O / SQL]</tspan></text></g><g id="v-3525"  label-idx="2" cursor="move" transform="matrix(1,0,0,1,2300.212646484375,515.900390625)" style="cursor: default;"><rect joint-selector="rect" id="v-3531" fill="#ffffff" rx="3" ry="3" x="-4.547473508864641e-13" y="0" width="0" height="0"  display="none"></rect><text joint-selector="text" id="v-3530" fill="#000000" font-size="14" text-anchor="middle" text-vertical-anchor="middle" pointer-events="none"></text></g></g></g><!--z-index:33--><g   id="j_283"  style="opacity: 1;"><path fill="none" cursor="pointer" stroke="transparent" stroke-linecap="round" joint-selector="wrapper" id="v-3545" stroke-width="10" stroke-linejoin="round" d="M 2229 781.44 L 2390 714 C 2396 711.3333333333333 2402.333333333333 710 2409 710 L 2569 710"></path><path fill="none" pointer-events="none" joint-selector="line" id="v-3544" stroke="#cccccc" stroke-width="2" stroke-linejoin="round" stroke-dasharray="8 8" d="M 2229 781.44 L 2390 714 C 2396 711.3333333333333 2402.333333333333 710 2409 710 L 2569 710" marker-end="url(#v-2-527367903)"></path><g id="v-3534" ><g id="v-3535"  label-idx="0" cursor="move" transform="matrix(1,0,0,1,2399.25,697.5999755859375)" style="cursor: default;"><rect joint-selector="rect" id="v-3539" fill="#111111" rx="3" ry="3" x="-58.578125" y="-16.8125" width="117.15625" height="28.984375" pointer-events="none"  style="display: block;"></rect><text joint-selector="text" id="v-3538" font-size="24px" xml:space="preserve" fill="#cccccc" text-anchor="middle" pointer-events="none" font-family="Tahoma, Verdana, Helvetica, Arial" font-weight="normal"  style="display: block;"><tspan dy="0.3em" >Writes logs</tspan></text></g><g id="v-3536"  label-idx="1" cursor="move" transform="matrix(1,0,0,1,2399.25,728)" style="cursor: default;"><rect joint-selector="rect" id="v-3541" fill="#111111" rx="3" ry="3" x="-34" y="-11.78125" width="68" height="20.296875"  pointer-events="none" style="display: block;"></rect><text joint-selector="text" id="v-3540" font-size="16.799999999999997px" xml:space="preserve" fill="#cccccc" text-anchor="middle" pointer-events="none" font-family="Tahoma, Verdana, Helvetica, Arial" font-weight="normal"  style="display: block;"><tspan dy="0.3em" >[File I/O]</tspan></text></g><g id="v-3537"  label-idx="2" cursor="move" transform="matrix(1,0,0,1,2382.30126953125,738.4488525390625)" style="cursor: default;"><rect joint-selector="rect" id="v-3543" fill="#ffffff" rx="3" ry="3" x="-4.547473508864641e-13" y="0" width="0" height="0"  display="none"></rect><text joint-selector="text" id="v-3542" fill="#000000" font-size="14" text-anchor="middle" text-vertical-anchor="middle" pointer-events="none"></text></g></g></g><!--z-index:34--><g   id="j_284"  style="opacity: 1;"><path fill="none" cursor="pointer" stroke="transparent" stroke-linecap="round" joint-selector="wrapper" id="v-3560" stroke-width="10" stroke-linejoin="round" d="M 2676.73 1287 L 2405 940 C 2401 934.5066666666667 2395.6666666666665 931.1733333333333 2389 930 L 2229 907.76"></path><path fill="none" pointer-events="none" joint-selector="line" id="v-3559" stroke="#cccccc" stroke-width="2" stroke-linejoin="round" stroke-dasharray="8 8" d="M 2676.73 1287 L 2405 940 C 2401 934.5066666666667 2395.6666666666665 931.1733333333333 2389 930 L 2229 907.76" marker-end="url(#v-2-527367903)"></path><g id="v-3549" ><g id="v-3550"  label-idx="0" cursor="move" transform="matrix(1,0,0,1,2398.03125,919.9995727539062)" style="cursor: default;"><rect joint-selector="rect" id="v-3554" fill="#111111" rx="3" ry="3" x="-87.859375" y="-16.8125" width="175.71875" height="28.984375" pointer-events="none"  style="display: block;"></rect><text joint-selector="text" id="v-3553" font-size="24px" xml:space="preserve" fill="#cccccc" text-anchor="middle" pointer-events="none" font-family="Tahoma, Verdana, Helvetica, Arial" font-weight="normal"  style="display: block;"><tspan dy="0.3em" >Scrapes /metrics</tspan></text></g><g id="v-3551"  label-idx="1" cursor="move" transform="matrix(1,0,0,1,2398.03125,950.3995361328125)" style="cursor: default;"><rect joint-selector="rect" id="v-3556" fill="#111111" rx="3" ry="3" x="-26.546875" y="-11.78125" width="53.09375" height="20.296875"  pointer-events="none" style="display: block;"></rect><text joint-selector="text" id="v-3555" font-size="16.799999999999997px" xml:space="preserve" fill="#cccccc" text-anchor="middle" pointer-events="none" font-family="Tahoma, Verdana, Helvetica, Arial" font-weight="normal"  style="display: block;"><tspan dy="0.3em" >[HTTP]</tspan></text></g><g id="v-3552"  label-idx="2" cursor="move" transform="matrix(1,0,0,1,2475.097412109375,1067.6846923828125)" style="cursor: default;"><rect joint-selector="rect" id="v-3558" fill="#ffffff" rx="3" ry="3" x="-4.547473508864641e-13" y="0" width="0" height="0"  display="none"></rect><text joint-selector="text" id="v-3557" fill="#000000" font-size="14" text-anchor="middle" text-vertical-anchor="middle" pointer-events="none"></text></g></g></g><!--z-index:35--><g   id="j_285"  style="opacity: 1;"><path fill="none" cursor="pointer" stroke="transparent" stroke-linecap="round" joint-selector="wrapper" id="v-3575" stroke-width="10" stroke-linejoin="round" d="M 2229 965.18 L 2390 1029 C 2396 1031.3733333333332 2400.6666666666665 1035.3733333333332 2404 1041 L 2715.46 1637"></path><path fill="none" pointer-events="none" joint-selector="line" id="v-3574" stroke="#cccccc" stroke-width="2" stroke-linejoin="round" stroke-dasharray="8 8" d="M 2229 965.18 L 2390 1029 C 2396 1031.3733333333332 2400.6666666666665 1035.3733333333332 2404 1041 L 2715.46 1637" marker-end="url(#v-2-527367903)"></path><g id="v-3564" ><g id="v-3565"  label-idx="0" cursor="move" transform="matrix(1,0,0,1,2398.02734375,1020.4034423828125)" style="cursor: default;"><rect joint-selector="rect" id="v-3569" fill="#111111" rx="3" ry="3" x="-71.171875" y="-16.8125" width="142.34375" height="28.984375" pointer-events="none"  style="display: block;"></rect><text joint-selector="text" id="v-3568" font-size="24px" xml:space="preserve" fill="#cccccc" text-anchor="middle" pointer-events="none" font-family="Tahoma, Verdana, Helvetica, Arial" font-weight="normal"  style="display: block;"><tspan dy="0.3em" >Uploads rides</tspan></text></g><g id="v-3566"  label-idx="1" cursor="move" transform="matrix(1,0,0,1,2398.02734375,1050.803466796875)" style="cursor: default;"><rect joint-selector="rect" id="v-3571" fill="#111111" rx="3" ry="3" x="-47.25" y="-11.78125" width="94.5" height="20.296875"  pointer-events="none" style="display: block;"></rect><text joint-selector="text" id="v-3570" font-size="16.799999999999997px" xml:space="preserve" fill="#cccccc" text-anchor="middle" pointer-events="none" font-family="Tahoma, Verdana, Helvetica, Arial" font-weight="normal"  style="display: block;"><tspan dy="0.3em" >[HTTPS/API]</tspan></text></g><g id="v-3567"  label-idx="2" cursor="move" transform="matrix(1,0,0,1,2505.27294921875,1279.328369140625)" style="cursor: default;"><rect joint-selector="rect" id="v-3573" fill="#ffffff" rx="3" ry="3" x="0" y="0" width="0" height="0"  display="none"></rect><text joint-selector="text" id="v-3572" fill="#000000" font-size="14" text-anchor="middle" text-vertical-anchor="middle" pointer-events="none"></text></g></g></g><!--z-index:36--><g   id="j_286"  style="opacity: 1;"><path fill="none" cursor="pointer" stroke="transparent" stroke-linecap="round" joint-selector="wrapper" id="v-3590" stroke-width="10" stroke-linejoin="round" d="M 2222.02 1026 L 2391 1142 C 2396.333333333333 1145.84 2400.333333333333 1150.84 2403 1157 L 2734.11 1987"></path><path fill="none" pointer-events="none" joint-selector="line" id="v-3589" stroke="#cccccc" stroke-width="2" stroke-linejoin="round" stroke-dasharray="8 8" d="M 2222.02 1026 L 2391 1142 C 2396.333333333333 1145.84 2400.333333333333 1150.84 2403 1157 L 2734.11 1987" marker-end="url(#v-2-527367903)"></path><g id="v-3579" ><g id="v-3580"  label-idx="0" cursor="move" transform="matrix(1,0,0,1,2397.787841796875,1134.9674072265625)" style="cursor: default;"><rect joint-selector="rect" id="v-3584" fill="#111111" rx="3" ry="3" x="-81.5625" y="-31.21875" width="163.125" height="57.78125" pointer-events="none"  style="display: block;"></rect><text joint-selector="text" id="v-3583" font-size="24px" xml:space="preserve" fill="#cccccc" text-anchor="middle" pointer-events="none" font-family="Tahoma, Verdana, Helvetica, Arial" font-weight="normal"  style="display: block;"><tspan dy="-0.3em" >Potential future</tspan><tspan dy="1.2em" x="0" >integration</tspan></text></g><g id="v-3581"  label-idx="1" cursor="move" transform="matrix(1,0,0,1,2397.787841796875,1179.7674560546875)" style="cursor: default;"><rect joint-selector="rect" id="v-3586" fill="#111111" rx="3" ry="3" x="-47.25" y="-11.78125" width="94.5" height="20.296875"  pointer-events="none" style="display: block;"></rect><text joint-selector="text" id="v-3585" font-size="16.799999999999997px" xml:space="preserve" fill="#cccccc" text-anchor="middle" pointer-events="none" font-family="Tahoma, Verdana, Helvetica, Arial" font-weight="normal"  style="display: block;"><tspan dy="0.3em" >[HTTPS/API]</tspan></text></g><g id="v-3582"  label-idx="2" cursor="move" transform="matrix(1,0,0,1,2516.9794921875,1507.58154296875)" style="cursor: default;"><rect joint-selector="rect" id="v-3588" fill="#ffffff" rx="3" ry="3" x="-4.547473508864641e-13" y="0" width="0" height="0"  display="none"></rect><text joint-selector="text" id="v-3587" fill="#000000" font-size="14" text-anchor="middle" text-vertical-anchor="middle" pointer-events="none"></text></g></g></g><!--z-index:37--><g   id="j_287"  style="opacity: 1;"><path fill="none" cursor="pointer" stroke="transparent" stroke-linecap="round" joint-selector="wrapper" id="v-3608" stroke-width="10" stroke-linejoin="round" d="M 2229 844.6 L 2389 822 C 2395.6666666666665 821.2533333333333 2400.6666666666665 823.5866666666666 2404 829 L 2697.83 1287"></path><path fill="none" pointer-events="none" joint-selector="line" id="v-3607" stroke="#cccccc" stroke-width="2" stroke-linejoin="round" stroke-dasharray="8 8" d="M 2229 844.6 L 2389 822 C 2395.6666666666665 821.2533333333333 2400.6666666666665 823.5866666666666 2404 829 L 2697.83 1287" marker-end="url(#v-2-527367903)"></path><g id="v-3597" ><g id="v-3598"  label-idx="0" cursor="move" transform="matrix(1,0,0,1,2398.242431640625,799.95263671875)" style="cursor: default;"><rect joint-selector="rect" id="v-3602" fill="#111111" rx="3" ry="3" x="-99.25" y="-16.8125" width="198.5" height="28.984375" pointer-events="none"  style="display: block;"></rect><text joint-selector="text" id="v-3601" font-size="24px" xml:space="preserve" fill="#cccccc" text-anchor="middle" pointer-events="none" font-family="Tahoma, Verdana, Helvetica, Arial" font-weight="normal"  style="display: block;"><tspan dy="0.3em" >Exposes metrics to</tspan></text></g><g id="v-3599"  label-idx="1" cursor="move" transform="matrix(1,0,0,1,2398.242431640625,840.4326171875)" style="cursor: default;"><rect joint-selector="rect" id="v-3604" fill="#111111" rx="3" ry="3" x="-75.84375" y="-21.859375" width="151.6875" height="40.453125"  pointer-events="none" style="display: block;"></rect><text joint-selector="text" id="v-3603" font-size="16.799999999999997px" xml:space="preserve" fill="#cccccc" text-anchor="middle" pointer-events="none" font-family="Tahoma, Verdana, Helvetica, Arial" font-weight="normal"  style="display: block;"><tspan dy="-0.3em" >[HTTP / Prometheus</tspan><tspan dy="1.2em" x="0" >exposition format]</tspan></text></g><g id="v-3600"  label-idx="2" cursor="move" transform="matrix(1,0,0,1,2492.536376953125,1018.0711059570312)" style="cursor: default;"><rect joint-selector="rect" id="v-3606" fill="#ffffff" rx="3" ry="3" x="0" y="0" width="0" height="0"  display="none"></rect><text joint-selector="text" id="v-3605" fill="#000000" font-size="14" text-anchor="middle" text-vertical-anchor="middle" pointer-events="none"></text></g></g></g><!--z-index:38--><!--z-index:39--><!--z-index:40--><!--z-index:41--><!--z-index:42--><!--z-index:43--><!--z-index:44--><!--z-index:45--><!--z-index:46--><!--z-index:47--><!--z-index:48--><!--z-index:49--><!--z-index:50--><!--z-index:51--><!--z-index:52--><!--z-index:53--><!--z-index:54--><!--z-index:55--><!--z-index:56--><!--z-index:57--><!--z-index:58--><!--z-index:59--><!--z-index:60--><!--z-index:61--><!--z-index:62--><!--z-index:63--><!--z-index:64--><!--z-index:65--><!--z-index:66--><!--z-index:67--><!--z-index:68--><!--z-index:69--><!--z-index:70--></g><g  style="-webkit-user-select: none;"></g><g ></g><g  display="none"></g></g></svg>